<svg width="250" height="68" viewBox="0 0 250 68" fill="none" xmlns="http://www.w3.org/2000/svg">
<path d="M77.0935 42V21.168H81.8395L82.3015 23.982C82.9735 22.974 83.8555 22.176 84.9475 21.588C86.0675 20.972 87.3555 20.664 88.8115 20.664C92.0315 20.664 94.3135 21.91 95.6575 24.402C96.4135 23.254 97.4215 22.344 98.6815 21.672C99.9695 21 101.37 20.664 102.882 20.664C105.598 20.664 107.684 21.476 109.14 23.1C110.596 24.724 111.324 27.104 111.324 30.24V42H105.948V30.744C105.948 28.952 105.598 27.58 104.898 26.628C104.226 25.676 103.176 25.2 101.748 25.2C100.292 25.2 99.1155 25.732 98.2195 26.796C97.3515 27.86 96.9175 29.344 96.9175 31.248V42H91.5415V30.744C91.5415 28.952 91.1915 27.58 90.4915 26.628C89.7915 25.676 88.7135 25.2 87.2575 25.2C85.8295 25.2 84.6675 25.732 83.7715 26.796C82.9035 27.86 82.4695 29.344 82.4695 31.248V42H77.0935ZM120.25 42.504C118.458 42.504 116.988 42.224 115.84 41.664C114.692 41.076 113.838 40.306 113.278 39.354C112.718 38.402 112.438 37.352 112.438 36.204C112.438 34.272 113.194 32.704 114.706 31.5C116.218 30.296 118.486 29.694 121.51 29.694H126.802V29.19C126.802 27.762 126.396 26.712 125.584 26.04C124.772 25.368 123.764 25.032 122.56 25.032C121.468 25.032 120.516 25.298 119.704 25.83C118.892 26.334 118.388 27.09 118.192 28.098H112.942C113.082 26.586 113.586 25.27 114.454 24.15C115.35 23.03 116.498 22.176 117.898 21.588C119.298 20.972 120.866 20.664 122.602 20.664C125.57 20.664 127.908 21.406 129.616 22.89C131.324 24.374 132.178 26.474 132.178 29.19V42H127.6L127.096 38.64C126.48 39.76 125.612 40.684 124.492 41.412C123.4 42.14 121.986 42.504 120.25 42.504ZM121.468 38.304C123.008 38.304 124.198 37.8 125.038 36.792C125.906 35.784 126.452 34.538 126.676 33.054H122.098C120.67 33.054 119.648 33.32 119.032 33.852C118.416 34.356 118.108 34.986 118.108 35.742C118.108 36.554 118.416 37.184 119.032 37.632C119.648 38.08 120.46 38.304 121.468 38.304ZM133.948 42V21.168H138.736L139.24 25.074C139.996 23.73 141.018 22.666 142.306 21.882C143.622 21.07 145.162 20.664 146.926 20.664V26.334H145.414C144.238 26.334 143.188 26.516 142.264 26.88C141.34 27.244 140.612 27.874 140.08 28.77C139.576 29.666 139.324 30.912 139.324 32.508V42H133.948ZM147.24 42V11.76H152.616V29.61L160.008 21.168H166.392L157.866 30.66L167.778 42H161.058L152.616 31.542V42H147.24ZM176.151 42.504C174.051 42.504 172.189 42.056 170.565 41.16C168.941 40.264 167.667 39.004 166.743 37.38C165.819 35.756 165.357 33.88 165.357 31.752C165.357 29.596 165.805 27.678 166.701 25.998C167.625 24.318 168.885 23.016 170.481 22.092C172.105 21.14 174.009 20.664 176.193 20.664C178.237 20.664 180.043 21.112 181.611 22.008C183.179 22.904 184.397 24.136 185.265 25.704C186.161 27.244 186.609 28.966 186.609 30.87C186.609 31.178 186.595 31.5 186.567 31.836C186.567 32.172 186.553 32.522 186.525 32.886H170.691C170.803 34.51 171.363 35.784 172.371 36.708C173.407 37.632 174.653 38.094 176.109 38.094C177.201 38.094 178.111 37.856 178.839 37.38C179.595 36.876 180.155 36.232 180.519 35.448H185.979C185.587 36.764 184.929 37.968 184.005 39.06C183.109 40.124 181.989 40.964 180.645 41.58C179.329 42.196 177.831 42.504 176.151 42.504ZM176.193 25.032C174.877 25.032 173.715 25.41 172.707 26.166C171.699 26.894 171.055 28.014 170.775 29.526H181.149C181.065 28.154 180.561 27.062 179.637 26.25C178.713 25.438 177.565 25.032 176.193 25.032ZM197.892 42.504C195.792 42.504 193.93 42.056 192.306 41.16C190.682 40.264 189.408 39.004 188.484 37.38C187.56 35.756 187.098 33.88 187.098 31.752C187.098 29.596 187.546 27.678 188.442 25.998C189.366 24.318 190.626 23.016 192.222 22.092C193.846 21.14 195.75 20.664 197.934 20.664C199.978 20.664 201.784 21.112 203.352 22.008C204.92 22.904 206.138 24.136 207.006 25.704C207.902 27.244 208.35 28.966 208.35 30.87C208.35 31.178 208.336 31.5 208.308 31.836C208.308 32.172 208.294 32.522 208.266 32.886H192.432C192.544 34.51 193.104 35.784 194.112 36.708C195.148 37.632 196.394 38.094 197.85 38.094C198.942 38.094 199.852 37.856 200.58 37.38C201.336 36.876 201.896 36.232 202.26 35.448H207.72C207.328 36.764 206.67 37.968 205.746 39.06C204.85 40.124 203.73 40.964 202.386 41.58C201.07 42.196 199.572 42.504 197.892 42.504ZM197.934 25.032C196.618 25.032 195.456 25.41 194.448 26.166C193.44 26.894 192.796 28.014 192.516 29.526H202.89C202.806 28.154 202.302 27.062 201.378 26.25C200.454 25.438 199.306 25.032 197.934 25.032Z" fill="#FAFAFA"/>
<path d="M211.822 42.294C210.842 42.294 210.03 41.986 209.386 41.37C208.77 40.754 208.462 40.012 208.462 39.144C208.462 38.248 208.77 37.492 209.386 36.876C210.03 36.26 210.842 35.952 211.822 35.952C212.802 35.952 213.6 36.26 214.216 36.876C214.86 37.492 215.182 38.248 215.182 39.144C215.182 40.012 214.86 40.754 214.216 41.37C213.6 41.986 212.802 42.294 211.822 42.294Z" fill="url(#paint0_linear_111_9)"/>
<path d="M0 61.719V22.1081V6.11619C0 5.09899 1.15018 4.5077 1.9774 5.09964L26.6286 22.739C27.0636 23.0503 27.6484 23.0503 28.0834 22.739L52.7345 5.09964C53.5618 4.5077 54.7119 5.09899 54.7119 6.11619V61.6632C54.7119 62.83 53.2549 63.3606 52.5046 62.4669L37.8458 45.0072C37.3815 44.4542 36.5465 44.4085 36.0246 44.9076L28.2377 52.3543C27.7473 52.8233 26.9723 52.8154 26.4916 52.3365L19.063 44.9363C18.5479 44.4233 17.7054 44.4563 17.232 45.008L2.19875 62.5329C1.44331 63.4135 0 62.8793 0 61.719Z" fill="url(#paint1_linear_111_9)"/>
<defs>
<linearGradient id="paint0_linear_111_9" x1="162.182" y1="0" x2="162.182" y2="67.5525" gradientUnits="userSpaceOnUse">
<stop stop-color="#2DD4BF"/>
<stop offset="1" stop-color="#22D3EE"/>
</linearGradient>
<linearGradient id="paint1_linear_111_9" x1="26.9006" y1="9.26753" x2="26.9006" y2="65.096" gradientUnits="userSpaceOnUse">
<stop stop-color="#2DD4BF"/>
<stop offset="1" stop-color="#22D3EE"/>
</linearGradient>
</defs>
</svg>
